<?xml version="1.0" encoding="utf-8" standalone="no"?>
<svg width="24.3438mm" height="23.245766mm" viewBox="0 0 24.3438 23.245767" version="1.1" xmlns="http://www.w3.org/2000/svg" xmlns:svg="http://www.w3.org/2000/svg">
  <style>
    path {
      fill: #FFF; 
    }
  </style>
  <g>
    <path d="m 12.14116,10.63962 c -1.32292,-1.32292 -3.96875,-3.96875 -3.96875,-6.61459 0,-2.64583 1.32291,-3.96875 1.32291,-3.96875 l 2.64584,2.64584 2.64583,-2.64584 c -0.0591,-0.39455 1.32292,1.32292 1.32292,3.96875 0,2.64584 -2.64584,5.29167 -3.96875,6.61459 z"/>
    <path d="m 10.88298,11.58188 c -1.66697,0.84935 -5.0009,2.54808 -7.51724,1.73047 -2.51634,-0.8176 -3.36574,-2.48453 -3.36574,-2.48453 l 3.33395,-1.69873 -1.69872,-3.33395 c -0.39352,-0.0657 1.66696,-0.84936 4.1833,-0.0318 2.51633,0.81761 4.21506,4.15157 5.06443,5.81852 z"/>
    <path d="m 11.36357,13.06094 c 0.29266,1.84785 0.87801,5.54355 -0.67718,7.68407 -1.55517,2.14053 -3.403,2.43325 -3.403,2.43325 l -0.58534,-3.69571 -3.69571,0.58533 c -0.1841,0.35395 -0.29267,-1.84784 1.26251,-3.98837 1.55518,-2.14052 5.2509,-2.72586 7.09874,-3.01854 z"/>
    <path d="m 12.91875,13.06093 c 1.84785,0.29268 5.54355,0.87802 7.09873,3.01855 1.55519,2.14051 1.26257,3.98836 1.26257,3.98836 l -3.69571,-0.58535 -0.58535,3.69571 c 0.27973,0.28446 -1.84784,-0.29267 -3.40303,-2.43319 -1.55518,-2.14053 -0.96983,-5.83624 -0.67717,-7.68409 z"/>
    <path d="m 13.39932,11.58187 c 0.84937,-1.66697 2.5481,-5.00091 5.06444,-5.81852 2.51633,-0.81761 4.18331,0.0317 4.18331,0.0317 l -1.69874,3.33395 3.33395,1.69873 c 0.35698,-0.17813 -0.84936,1.66697 -3.3657,2.48458 -2.51634,0.81761 -5.85028,-0.88113 -7.51726,-1.73049 z"/>
  </g>
</svg>
